<?xml version="1.0" encoding="utf-8"?>
<!-- Generator: Adobe Illustrator 16.0.0, SVG Export Plug-In . SVG Version: 6.00 Build 0)  -->
<!DOCTYPE svg PUBLIC "-//W3C//DTD SVG 1.1//EN" "http://www.w3.org/Graphics/SVG/1.1/DTD/svg11.dtd">
<svg version="1.1" id="Layer_1" xmlns="http://www.w3.org/2000/svg" xmlns:xlink="http://www.w3.org/1999/xlink" x="0px" y="0px"
	 viewBox="0 0 612 792" enable-background="new 0 0 612 792" xml:space="preserve">
<title>logo-white</title>
<g>
	<path fill="#3D3D3D" d="M344.479,355.687c1.065-0.222,2.13-0.396,3.194-0.594c1.883-0.322,3.565-0.594,5.052-0.792
		c0.792-0.099,1.56-0.223,2.353-0.322C351.486,354.375,347.945,354.944,344.479,355.687z M355.721,353.904
		c-0.024,0-0.049,0-0.074,0.025c0.148-0.025,0.298-0.05,0.421-0.05C355.944,353.879,355.845,353.904,355.721,353.904z
		 M359.386,338.873c-0.446,4.953-0.173,8.692,0.074,10.748h0.05C359.063,345.856,359.139,342.142,359.386,338.873z M361.639,326.417
		c-0.049,0.173-0.074,0.322-0.123,0.471l0.148-0.446L361.639,326.417z"/>
	<linearGradient id="SVGID_1_" gradientUnits="userSpaceOnUse" x1="371.6367" y1="329.5371" x2="386.3271" y2="329.5371">
		<stop  offset="0" style="stop-color:#2E3192"/>
		<stop  offset="1" style="stop-color:#1BFFFF"/>
	</linearGradient>
	<path fill="url(#SVGID_1_)" d="M386.327,347.862l-14.387,0.644c-0.595-5.299-1.485-22.831,10.054-37.937
		C381.499,318.443,381.523,333.128,386.327,347.862z"/>
	<linearGradient id="SVGID_2_" gradientUnits="userSpaceOnUse" x1="339.1875" y1="322.0835" x2="357.6768" y2="322.0835">
		<stop  offset="0" style="stop-color:#2E3192"/>
		<stop  offset="1" style="stop-color:#1BFFFF"/>
	</linearGradient>
	<path fill="url(#SVGID_2_)" d="M357.677,326.813c-0.099,0.322-0.197,0.768-0.321,1.287c-0.05,0.297-0.124,0.595-0.198,0.892
		c-0.024,0.099-0.05,0.198-0.075,0.297c-0.148,0.743-0.297,1.461-0.444,2.179c-0.101,0.545-0.174,1.065-0.272,1.585
		c0,0.074-0.025,0.148-0.025,0.223c-0.123,0.718-0.223,1.412-0.322,2.105c-0.099,0.817-0.197,1.684-0.272,2.575
		c-0.049,0.445-0.099,0.916-0.123,1.362c-0.025,0.495-0.074,0.965-0.074,1.411c-0.024,0.496-0.05,0.966-0.05,1.461
		c-0.025,0.248-0.025,0.52-0.025,0.768v0.669c0,0.52,0,1.04,0.025,1.584c0,0.545,0.025,1.09,0.05,1.634
		c-0.024,0.05-0.024,0.124,0,0.174c0.049,1.263,0.148,2.328,0.247,3.145c-0.173,0.025-0.347,0.05-0.545,0.074
		c-0.222,0-0.446,0.025-0.669,0.074c-0.222,0-0.47,0.05-0.718,0.074c-0.272,0.049-0.521,0.075-0.792,0.1
		c-0.569,0.074-1.164,0.148-1.734,0.248c-0.644,0.074-1.312,0.173-1.955,0.297c-1.337,0.223-2.773,0.47-4.309,0.743
		c-1.685,0.322-3.343,0.694-4.978,1.065c-1.188-7.156-4.012-34.148,13.966-61.511C354.036,301.01,354.408,319.558,357.677,326.813z"
		/>
	<linearGradient id="SVGID_3_" gradientUnits="userSpaceOnUse" x1="359.1875" y1="431.1143" x2="535.8848" y2="431.1143">
		<stop  offset="0" style="stop-color:#2E3192"/>
		<stop  offset="1" style="stop-color:#1BFFFF"/>
	</linearGradient>
	<path fill="url(#SVGID_3_)" d="M527.848,497.578c-1.536-1.833-3.913-4.359-7.306-7.058l-5.299-4.309l2.353,6.265
		c0.297,1.313,2.576,22.782,2.229,29.046c-0.792,2.552-9.831,29.865-35.659,59.828c14.339-27.066,28.354-76.443,2.823-125.896
		c-28.254-54.675-82.683-64.457-102.791-66.19c18.895-7.528,34.372-4.185,34.545-4.135l17.631,3.986l-16.442-7.503
		c-42.245-19.216-33.776-75.823-33.678-76.394l0.917-5.794l-4.086,4.209c-16.716,17.186-15.625,38.754-14.858,45.242l-8.716,0.743
		c-0.446-3.764-0.371-7.479-0.124-10.748c0.05-0.718,0.124-1.461,0.223-2.229c0.099-0.743,0.174-1.437,0.272-2.08
		c0.025-0.223,0.075-0.446,0.099-0.668c0.1-0.569,0.198-1.164,0.322-1.783c0-0.025,0-0.049,0.025-0.074
		c0.049-0.272,0.099-0.52,0.148-0.792c0.049-0.247,0.099-0.495,0.148-0.743c0.148-0.594,0.272-1.188,0.421-1.808
		c0.05-0.198,0.1-0.396,0.148-0.595c0.024-0.074,0.05-0.148,0.074-0.247c0.025-0.099,0.049-0.198,0.074-0.297
		c0.025-0.124,0.074-0.272,0.099-0.396l0.075-0.272l0.148-0.446l-0.025-0.024v-0.025c3.294-11.663,11.441-28.65,31.35-45.514
		c2.205,13.049,12.828,60.817,51.507,77.482c34.322,14.734,68.544,32.118,88.527,59.456c-5.2-2.426-13.1-5.571-22.51-7.453
		l-10.771-2.154l9.46,5.572c0.222,0.147,23.054,14.064,26.67,32.81C535.92,448.522,536.217,470.908,527.848,497.578z"/>
	<linearGradient id="SVGID_4_" gradientUnits="userSpaceOnUse" x1="447.498" y1="411.3896" x2="299.6503" y2="559.2374">
		<stop  offset="0" style="stop-color:#2E3192"/>
		<stop  offset="0.059" style="stop-color:#2D409A"/>
		<stop  offset="0.4022" style="stop-color:#2591C5"/>
		<stop  offset="0.6841" style="stop-color:#20CCE4"/>
		<stop  offset="0.8906" style="stop-color:#1CF1F8"/>
		<stop  offset="1" style="stop-color:#1BFFFF"/>
	</linearGradient>
	<path fill="url(#SVGID_4_)" d="M483.658,457.172c-33.825-65.52-106.36-64.542-107.063-64.568l-7.893,0.201l6.965-3.683
		c13.856-7.316,26.584-8.644,34.702-8.519c-11.574-7.617-18.591-18.215-22.749-29.089l-18.792,0.827c0,0-4.385,0.576-8.619,1.077
		c-0.503,0.05-1.028,0.1-1.529,0.175c-0.901,0.1-1.804,0.175-2.605,0.275c-0.125,0-0.275,0.025-0.426,0.05
		c-0.176,0-0.376,0.025-0.577,0.05c-0.776,0.1-1.553,0.226-2.355,0.326c-1.478,0.201-3.156,0.476-5.035,0.802
		c-1.077,0.2-2.13,0.376-3.207,0.601c-0.603,0.101-1.152,0.201-1.754,0.351c-1.203,0.251-2.431,0.552-3.634,0.877
		c-0.45,0.1-0.927,0.225-1.378,0.351c-23.126,6.164-41.492,18.741-47.53,33.549c-13.03,35.805-46.153,57.603-73.739,60.409
		c-2.555,0.275-5.037,0.376-7.466,0.3c-5.763-0.175-9.772,0.703-11.501,2.431c0.426,0.752,1.103,1.829,2.004,3.157
		c0.853,1.229,1.83,2.581,2.932,4.01c0.501,0.626,1.026,1.277,1.553,1.954c0.05,0.05,0.101,0.124,0.15,0.2
		c2.155,2.531,4.761,5.337,7.843,8.093c13.104,11.726,34.827,22.826,65.695,12.127c8.394-2.906,16.712-6.013,24.78-9.021
		c45.351-16.937,88.17-32.973,127.158-6.214c18.039,12.453,29.69,31.27,33.599,54.446c4.785,28.287-2.656,60.008-19.394,82.783
		c-13.705,18.642-34.927,32.021-56.876,40.917c19.318-6.44,37.91-15.735,55.599-27.837c9.571-6.565,18.04-13.481,25.557-20.472
		c1.078-1.001,2.131-2.029,3.157-3.006C485.612,578.191,514.952,517.731,483.658,457.172z M298.698,418.035
		c3.333-2.556,21.472-17.013,27.887-34.426c0,0,10.272,11.175,24.529,12.778C351.114,396.388,321.398,401.925,298.698,418.035z"/>
	<path fill="#FFFFFF" d="M351.115,396.397c0,0-29.716,5.522-52.423,21.642c3.343-2.55,21.47-17.012,27.883-34.42
		C326.575,383.619,336.852,394.787,351.115,396.397z"/>
	<linearGradient id="SVGID_5_" gradientUnits="userSpaceOnUse" x1="278.9185" y1="657.4102" x2="278.9184" y2="230.2881">
		<stop  offset="0" style="stop-color:#2E3192"/>
		<stop  offset="1" style="stop-color:#1BFFFF"/>
	</linearGradient>
	<path fill="url(#SVGID_5_)" d="M440.806,603.29c-25.258,34.371-80.652,51.829-114.874,54.008h-0.224
		c-30.284,0.966-61.708-4.284-93.702-15.773c-83.079-29.889-127.702-111.903-134.017-175.47
		c-4.705-47.174,2.477-138.499,103.385-220.067c6.685-5.398,12.777-10.599,18.374-15.7c-7.454,9.459-14.684,18.771-20.454,26.373
		c-32.439,42.691-83.302,129.088-59.48,227.793c25.604,106.109,124.111,122.427,128.42,123.096h0.024
		c0.05,0.025,0.074,0.025,0.124,0.05c43.979,13.941,100.204,9.994,123.617-27.834c13.299-21.487,10.198-37.598,4.778-48.386
		c-12.141-24.165-49.699-33.429-76.492-31.151c-7.379,0.619-14.288,1.535-20.974,2.378c-34.445,4.481-59.357,7.726-94.123-31.599
		c-2.6-2.55-5.894-6.611-7.602-10.252c9.632,13.075,36.723,41.701,81.271,26.273c8.444-2.922,16.79-6.042,24.861-9.063
		c46.357-17.334,86.399-32.291,123.765-6.611c17.21,11.836,28.304,29.813,32.044,51.977
		C464.133,550.669,456.976,581.301,440.806,603.29z"/>
	<linearGradient id="SVGID_6_" gradientUnits="userSpaceOnUse" x1="332.6387" y1="12.3501" x2="332.6387" y2="246.7803">
		<stop  offset="0" style="stop-color:#F2F2F2"/>
		<stop  offset="0.1226" style="stop-color:#EAEAEA"/>
		<stop  offset="0.5592" style="stop-color:#D4D4D4"/>
		<stop  offset="0.8383" style="stop-color:#CCCCCC"/>
	</linearGradient>
	<path fill="url(#SVGID_6_)" d="M385.709,214.341c3.889-54.231-35.732-80.306-36.153-80.554l-3.418-2.204l0.595,4.037
		c5.051,34.965-25.357,58.688-38.185,67.008c21.741-45.812-3.318-90.36-3.591-90.805l-2.427-4.21l-1.015,4.729
		c-6.042,28.304-24.367,51.656-36.574,64.631c13.52-23.079,17.433-43.187,21.296-62.947c1.609-8.296,3.293-16.913,5.67-25.604
		c11.317-41.626,43.756-67.455,56.261-76.072c-6.116,15.477-18.15,59.233,18.275,102.122
		c53.042,62.452,34.297,106.158,8.072,132.308C380.682,237.791,384.768,227.242,385.709,214.341z"/>
	<path fill="#3D3D3D" d="M253.5,188.018c0,0.025,0,0.025-0.025,0.05l-0.024-0.025C253.451,188.042,253.475,188.018,253.5,188.018z"
		/>
	<path fill="#3D3D3D" d="M303.892,295.439c-3.517,2.204-7.057,4.458-10.624,6.735C296.092,300.02,299.757,297.841,303.892,295.439z"
		/>
	<linearGradient id="SVGID_7_" gradientUnits="userSpaceOnUse" x1="137.6201" y1="356.7607" x2="382.4736" y2="356.7607">
		<stop  offset="0" style="stop-color:#2E3192"/>
		<stop  offset="1" style="stop-color:#1BFFFF"/>
	</linearGradient>
	<path fill="url(#SVGID_7_)" d="M262.393,185.896c4.177-4.234,32.532-33.382,41.79-67.862c5.759,12.813,19.507,50.891-1.656,88.537
		l-3.094,5.398l5.542-2.879c0.504-0.216,49.164-25.914,46.14-69.822c9.142,7.486,34.191,31.96,31.096,74.645
		c-1.799,25.265-20.73,43.836-39.445,57.226c-0.072,0.072-0.072,0.072-0.145,0.072c-7.126,4.678-14.828,9.43-22.962,14.468
		c-4.966,3.023-10.006,6.119-15.116,9.358c-0.145,0.072-0.289,0.215-0.432,0.287c-4.175,2.376-7.774,4.535-10.653,6.695
		c0,0.072-0.072,0.072-0.145,0.144c-37.718,24.473-77.668,55.282-99.55,100.846c-41.173,85.874-9.645,157.136,37.07,187.08
		c2.951,1.872,6.047,3.743,9.286,5.398c-31.6-12.668-79.827-42.974-96.455-112.003c-23.466-97.247,26.777-182.545,58.809-224.727
		c11.733-15.476,22.571-30.213,37.225-47.344L262.393,185.896z"/>
	<path fill="#3F3D3E" d="M211.956,471.379c-3.082-2.756-5.688-5.562-7.843-8.093c-0.05-0.076-0.1-0.15-0.15-0.2
		c-0.526-0.677-1.052-1.328-1.553-1.954c-1.103-1.429-2.08-2.781-2.932-4.01c-0.902-1.328-1.578-2.405-2.004-3.157
		c1.729-1.728,5.738-2.605,11.501-2.431c2.43,0.076,4.911-0.024,7.466-0.3C217.017,456.32,216.966,465.967,211.956,471.379z"/>
	<g>
		<path fill="#FFFFFF" d="M89.406,745.37c-1.226,3.172-2.895,5.704-5.008,7.595c-2.532,2.199-5.412,3.702-8.639,4.508
			c-2.478,0.641-5.747,0.96-9.809,0.96h-7.012v19.825H43.454v-63.271h20.701c2.003,0,3.688,0.042,5.051,0.124
			c1.891,0.113,3.616,0.307,5.176,0.585c3.839,0.668,6.927,1.977,9.264,3.923c4.953,4.201,7.43,9.781,7.43,16.736
			C91.076,739.442,90.518,742.447,89.406,745.37z M72.253,730.428c-1.614-0.835-4.063-1.251-7.346-1.251h-5.969v15.066h6.553
			c3.116,0,5.467-0.473,7.054-1.419c2.03-1.197,3.046-3.256,3.046-6.177C75.591,733.669,74.478,731.597,72.253,730.428z"/>
		<path fill="#FFFFFF" d="M127.273,778.258v-63.271h16.153v49.081h18.739v14.19H127.273z"/>
		<path fill="#FFFFFF" d="M236.803,778.258l-3.089-9.14h-21.953l-3.339,9.14h-17.362l25.376-63.271h12.729l25.167,63.271H236.803z
			 M222.947,734.686h-0.25l-6.511,21.618h13.272L222.947,734.686z"/>
		<path fill="#FFFFFF" d="M305.764,729.177v49.081h-16.152v-49.081h-12.48v-14.19h41.024v14.19H305.764z"/>
		<path fill="#FFFFFF" d="M360.285,720.745v22.914h24.667v5.718h-24.667v28.881h-6.344v-63.271h31.971v5.759H360.285z"/>
		<path fill="#FFFFFF" d="M479.078,769.869c-6.568,6.344-14.4,9.516-23.498,9.516c-8.958,0-16.749-3.144-23.372-9.433
			c-6.706-6.399-10.059-14.064-10.059-22.997c0-9.182,3.27-17,9.808-23.455c6.512-6.399,14.386-9.6,23.623-9.6
			c9.126,0,16.974,3.172,23.54,9.517c6.649,6.4,9.976,14.134,9.976,23.204C489.096,755.693,485.756,763.441,479.078,769.869z
			 M474.738,727.59c-5.343-5.313-11.73-7.972-19.158-7.972c-7.511,0-13.912,2.688-19.197,8.056
			c-5.26,5.369-7.889,11.798-7.889,19.281c0,7.292,2.699,13.565,8.096,18.823c5.342,5.232,11.673,7.847,18.99,7.847
			c7.402,0,13.772-2.63,19.116-7.889c5.369-5.259,8.055-11.603,8.055-19.03C482.751,739.276,480.081,732.905,474.738,727.59z"/>
		<path fill="#FFFFFF" d="M562.648,778.258l-17.781-27.003l-18.029,27.003h-7.429l21.452-32.304l-20.24-30.968h7.428l16.818,25.334
			l16.694-25.334h7.346l-20.366,30.968l21.66,32.304H562.648z"/>
	</g>
</g>
</svg>